<?xml version="1.0" encoding="iso-8859-1"?>
<!-- Generator: Adobe Illustrator 18.1.1, SVG Export Plug-In . SVG Version: 6.00 Build 0)  -->
<svg version="1.1" id="Capa_1" xmlns="http://www.w3.org/2000/svg" xmlns:xlink="http://www.w3.org/1999/xlink" x="0px" y="0px"
	 viewBox="0 0 179.018 179.018" style="enable-background:new 0 0 179.018 179.018;" xml:space="preserve">
<g>
	<path style="fill:#010002;" d="M81.639,105.058c-0.65-0.925-1.068-2.649-1.211-5.179c-1.659,0.644-3.341,1.283-5,1.897
		c0,3.234,0.525,5.615,1.611,7.113c1.957,2.793,5.674,3.3,11.164,1.456c0,1.832,0,3.652,0,5.49c0.883-0.364,1.796-0.716,2.679-1.08
		c0-1.832,0-3.652,0-5.484c3.419-1.748,6.015-3.538,7.835-5.4c3.264-3.377,4.893-7.53,4.893-12.554c0-3.467-1.271-5.621-3.825-6.414
		c-1.575-0.477-4.547-0.471-8.909,0.06c0-4.594,0-9.183,0-13.772c2.602-0.943,4.499-0.698,5.68,0.746
		c0.638,0.782,1.026,1.868,1.164,3.246c1.641-0.644,3.3-1.277,4.941-1.891c-0.107-3.156-1.14-5.346-3.156-6.516
		c-1.993-1.175-4.869-1.152-8.628,0.084c0-1.235,0-2.464,0-3.699c-0.883,0.358-1.796,0.716-2.679,1.074c0,1.253,0,2.506,0,3.759
		c-3.789,1.551-6.737,3.878-8.837,6.987c-2.094,3.109-3.139,6.074-3.139,8.938c0,3.204,0.979,5.346,2.924,6.414
		c1.939,1.068,4.964,1.175,9.064,0.304c0,5.137,0,10.275,0,15.406C85.004,107.063,82.82,106.734,81.639,105.058z M90.881,90.26
		c2.345-0.304,4.022-0.286,5.036,0.03c1.724,0.543,2.602,1.999,2.602,4.35c0,1.486-0.328,2.93-0.955,4.308
		c-1.235,2.679-3.449,4.738-6.683,6.176C90.881,100.171,90.881,95.218,90.881,90.26z M83.166,85.301
		c-1.247-0.567-1.868-1.784-1.868-3.652c0-1.545,0.531-3.234,1.593-5.06c1.062-1.832,2.84-3.282,5.322-4.374
		c0,4.427,0,8.855,0,13.288C86.078,85.94,84.413,85.862,83.166,85.301z M21.409,146.85c0,1.319-0.149,2.548-0.37,3.723
		c45.641,13.795,91.299-36.517,136.964-22.71c-0.221-1.313-0.382-2.631-0.382-3.944c0-11.564,9.511-19.207,21.224-9.905
		c0.072,0.06,0.119,0.119,0.173,0.167c0-16.445,0-32.889,0-49.334c-0.06-0.048-0.119-0.078-0.173-0.125
		c-11.713-9.302-21.224-20.663-21.224-32.549c0-1.313,0.161-2.542,0.382-3.723C112.344,14.642,66.686,64.948,21.039,51.153
		c0.221,1.313,0.37,2.637,0.37,3.944c0,11.564-9.505,19.213-21.236,9.905C0.113,64.948,0.054,64.889,0,64.841
		c0,16.445,0,32.889,0,49.334c0.072,0.048,0.119,0.072,0.173,0.119C11.91,123.621,21.409,134.982,21.409,146.85z M89.509,57.024
		c17.948-7.584,32.508,3.073,32.508,21.218c0,17.751-14.553,36.195-32.508,43.779c-17.942,7.578-32.49-3.079-32.49-21.224
		C57.013,83.046,71.567,64.602,89.509,57.024z"/>
</g>
<g>
</g>
<g>
</g>
<g>
</g>
<g>
</g>
<g>
</g>
<g>
</g>
<g>
</g>
<g>
</g>
<g>
</g>
<g>
</g>
<g>
</g>
<g>
</g>
<g>
</g>
<g>
</g>
<g>
</g>
</svg>
